<svg width="70" height="70" viewBox="0 0 70 70" fill="none" xmlns="http://www.w3.org/2000/svg">
<path opacity="0.4" d="M5.83337 42.5197V24.9971C5.83337 22.5593 7.08172 20.3307 9.05796 19.2405L15.0367 15.9423C16.6567 15.0486 18.443 14.5833 20.2542 14.5833H25.1577C28.7771 14.5833 32.1515 16.4326 34.3406 19.5153L28.6841 27.3166C27.2984 29.2277 27.4367 31.9827 29.0052 33.7133C30.7052 35.589 33.4615 35.589 35.1616 33.7133L39.2893 29.1591L45.9709 42.6746C47.799 46.3723 45.9683 50.9788 42.2647 52.0004L31.9693 54.8401C28.2589 55.8636 24.3468 55.5177 20.8314 53.8555L9.36884 48.4354C7.22402 47.4212 5.83337 45.0943 5.83337 42.5197Z" fill="#28303F"/>
<path d="M64.1667 43.2442V24.9971C64.1667 22.5593 62.9184 20.3307 60.9421 19.2405L54.9634 15.9423C53.3434 15.0486 51.5571 14.5833 49.7459 14.5833H43.524C39.9799 14.5833 36.6279 16.3608 34.4139 19.4143L28.6841 27.3166C27.2984 29.2277 27.4367 31.9827 29.0052 33.7133C30.7052 35.589 33.4615 35.589 35.1616 33.7133L39.2893 29.1591L45.9709 42.6746C47.1343 45.0278 46.8159 47.7492 45.4759 49.6803H58.3334C61.555 49.6803 64.1667 46.7988 64.1667 43.2442Z" fill="#28303F"/>
</svg>
