<svg width="70" height="70" viewBox="0 0 70 70" fill="none" xmlns="http://www.w3.org/2000/svg">
<path opacity="0.4" d="M11.6666 35C11.6666 31.7783 14.2783 29.1666 17.5 29.1666H43.75C46.9716 29.1666 49.5833 31.7783 49.5833 35C49.5833 38.2216 46.9716 40.8333 43.75 40.8333H17.5C14.2783 40.8333 11.6666 38.2216 11.6666 35Z" fill="#28303F"/>
<path d="M46.5833 40.8333H17.9861C14.4959 40.8333 11.6666 43.445 11.6666 46.6666C11.6666 49.8883 14.4959 52.5 17.9861 52.5H46.5833C48.2402 52.5 49.5833 51.1568 49.5833 49.5V43.8333C49.5833 42.1765 48.2402 40.8333 46.5833 40.8333Z" fill="#28303F"/>
<path opacity="0.4" d="M58.3333 52.5C58.3333 46.0567 53.11 40.8333 46.6667 40.8333C46.0853 40.8333 45.5138 40.8758 44.9552 40.958C39.3232 41.7859 35 46.6381 35 52.5C35 58.9433 40.2233 64.1666 46.6667 64.1666C53.11 64.1666 58.3333 58.9433 58.3333 52.5Z" fill="#28303F"/>
<path fill-rule="evenodd" clip-rule="evenodd" d="M32.8124 9.90628L30.7134 12.0053C29.8591 12.8596 28.4741 12.8596 27.6198 12.0053C26.7655 11.1511 26.7655 9.766 27.6198 8.91173L31.3907 5.14079C33.384 3.14749 36.6158 3.14749 38.6091 5.14079L42.38 8.91173C43.2343 9.766 43.2343 11.151 42.38 12.0053C41.5258 12.8596 40.1407 12.8596 39.2865 12.0053L37.1874 9.90628L37.1874 20.4166C37.1874 21.6248 36.208 22.6041 34.9999 22.6041C33.7918 22.6041 32.8124 21.6248 32.8124 20.4166L32.8124 9.90628Z" fill="#28303F"/>
</svg>
