<svg width="47" height="47" viewBox="0 0 47 47" fill="none" xmlns="http://www.w3.org/2000/svg">
<path d="M23.0112 27.8136C20.8539 27.8136 18.9843 26.0877 18.9843 23.7866C18.9843 21.6293 20.7101 19.7597 23.0112 19.7597C25.1685 19.7597 27.0382 21.4855 27.0382 23.7866C27.0382 25.9439 25.1685 27.8136 23.0112 27.8136Z" fill="#37BEB6"/>
<path fill-rule="evenodd" clip-rule="evenodd" d="M27.9011 14.0068H18.1213C16.9708 14.1507 16.3955 14.2945 15.964 14.4383C15.3888 14.5821 14.9573 14.8698 14.5258 15.3012C14.1844 15.6426 14.0231 15.984 13.8282 16.3967C13.7768 16.5055 13.7229 16.6195 13.6629 16.7394C13.6407 16.8062 13.615 16.8764 13.5874 16.9516C13.437 17.3627 13.2315 17.9242 13.2315 18.8967V28.6765C13.3753 29.8271 13.5191 30.4024 13.6629 30.8338C13.8067 31.4091 14.0944 31.8406 14.5258 32.272C14.8673 32.6134 15.2087 32.7747 15.6213 32.9697C15.7302 33.0211 15.844 33.0749 15.964 33.1349C16.0308 33.1572 16.101 33.1829 16.1762 33.2104C16.5873 33.3609 17.1488 33.5664 18.1213 33.5664H27.9011C29.0517 33.4226 29.627 33.2788 30.0584 33.1349C30.6337 32.9911 31.0652 32.7035 31.4966 32.272C31.838 31.9306 31.9993 31.5892 32.1943 31.1765C32.2457 31.0677 32.2995 30.9539 32.3596 30.8338C32.3818 30.7671 32.4075 30.6969 32.435 30.6217C32.5855 30.2106 32.791 29.6491 32.791 28.6765V18.8967C32.6472 17.7462 32.5034 17.1709 32.3596 16.7394C32.2157 16.1642 31.9281 15.7327 31.4966 15.3012C31.1552 14.9598 30.8138 14.7985 30.4011 14.6035C30.2925 14.5522 30.1783 14.4982 30.0584 14.4383C29.9917 14.4161 29.9215 14.3904 29.8463 14.3628C29.4352 14.2124 28.8737 14.0068 27.9011 14.0068ZM23.0112 17.6024C19.5596 17.6024 16.827 20.3349 16.827 23.7866C16.827 27.2383 19.5596 29.9709 23.0112 29.9709C26.4629 29.9709 29.1955 27.2383 29.1955 23.7866C29.1955 20.3349 26.4629 17.6024 23.0112 17.6024ZM30.7775 17.4585C30.7775 18.2528 30.1336 18.8967 29.3393 18.8967C28.545 18.8967 27.9011 18.2528 27.9011 17.4585C27.9011 16.6642 28.545 16.0203 29.3393 16.0203C30.1336 16.0203 30.7775 16.6642 30.7775 17.4585Z" fill="#37BEB6"/>
<path fill-rule="evenodd" clip-rule="evenodd" d="M0 23.7866C0 11.0779 10.3025 0.775391 23.0112 0.775391C35.72 0.775391 46.0225 11.0779 46.0225 23.7866C46.0225 36.4954 35.72 46.7979 23.0112 46.7979C10.3025 46.7979 0 36.4954 0 23.7866ZM18.1213 11.8495H27.9011C29.1955 11.9934 30.0584 12.1372 30.7775 12.4248C31.6404 12.8563 32.2157 13.1439 32.9348 13.863C33.6539 14.5821 34.0854 15.3012 34.373 16.0203C34.6607 16.7394 34.9483 17.6024 34.9483 18.8967V28.6765C34.8045 29.9709 34.6607 30.8338 34.373 31.5529C33.9416 32.4158 33.6539 32.9911 32.9348 33.7102C32.2157 34.4293 31.4966 34.8608 30.7775 35.1484C30.0584 35.4361 29.1955 35.7237 27.9011 35.7237H18.1213C16.827 35.5799 15.964 35.4361 15.2449 35.1484C14.382 34.717 13.8067 34.4293 13.0876 33.7102C12.3685 32.9911 11.9371 32.272 11.6494 31.5529C11.3618 30.8338 11.0742 29.9709 11.0742 28.6765V18.8967C11.218 17.6024 11.3618 16.7394 11.6494 16.0203C12.0809 15.1574 12.3685 14.5821 13.0876 13.863C13.8067 13.1439 14.5258 12.7125 15.2449 12.4248C15.964 12.1372 16.827 11.8495 18.1213 11.8495Z" fill="#37BEB6"/>
</svg>
