<svg width="47" height="47" viewBox="0 0 47 47" fill="none" xmlns="http://www.w3.org/2000/svg">
<path fill-rule="evenodd" clip-rule="evenodd" d="M0.809082 23.7866C0.809082 11.0779 11.1116 0.775391 23.8203 0.775391C36.5291 0.775391 46.8316 11.0779 46.8316 23.7866C46.8316 36.4954 36.5291 46.7979 23.8203 46.7979C11.1116 46.7979 0.809082 36.4954 0.809082 23.7866ZM12.6023 19.9035V35.2922H17.4922V19.9035H12.6023ZM12.3147 15.0136C12.3147 16.5956 13.4653 17.7462 15.0473 17.7462C16.6293 17.7462 17.7799 16.5956 17.7799 15.0136C17.7799 13.4316 16.6293 12.281 15.0473 12.281C13.6091 12.281 12.3147 13.4316 12.3147 15.0136ZM30.4361 35.2922H35.0383V25.8001C35.0383 21.054 32.1619 19.472 29.4293 19.472C26.9844 19.472 25.2585 21.054 24.8271 22.0608V19.9035H20.2248V35.2922H25.1147V27.0945C25.1147 24.9372 26.5529 23.7866 27.9911 23.7866C29.4293 23.7866 30.4361 24.5057 30.4361 26.9507V35.2922Z" fill="#37BEB6"/>
</svg>
