<svg xmlns="http://www.w3.org/2000/svg" viewBox="0 0 24 24" width="24" height="24" fill="#37BEB6">
    <path d="M12 0C5.376 0 0 5.376 0 12s5.376 12 12 12 12-5.376 12-12S18.624 0 12 0zm4.125 18.682c-.298.852-1.646 1.939-2.974 2.499-.742.309-1.86.482-3.15-.474-2.388-1.585-3.336-5.345-3.235-7.575.052-.853.317-1.674.67-2.43L6.35 8.843a.704.704 0 0 1 .091-.953c.228-.228.52-.338.797-.338l.137.001a.685.685 0 0 1 .589.333l1.136 1.754c.152.235.356.434.595.573.012.007.026.011.04.018l.051.021c.02.008.038.018.06.026a.37.37 0 0 0 .083.033.57.57 0 0 0 .107.021c.042.006.082.016.126.017l.088-.014a.432.432 0 0 0 .098-.029.26.26 0 0 0 .057-.03c.025-.016.047-.034.07-.052l1.948-1.27c.11-.08.203-.167.278-.277l1.765-2.827c.114-.173.152-.392.108-.597a.688.688 0 0 0-.337-.464L16.32 4.1a.715.715 0 0 0-.495-.153c-.37.052-1.567.321-2.36 1.112-.495.494-.741 1.065-.833 1.451-.305 1.4.3 3.22 1.75 4.669 1.358 1.358 2.887 2.097 4.698 1.809.384-.044.957-.291 1.46-.791.152-.154.205-.353.155-.545z"/>
</svg>
