<svg width="68" height="68" viewBox="0 0 68 68" fill="none" xmlns="http://www.w3.org/2000/svg">
<path opacity="0.5" d="M4.10984 27.3333L63.8903 27.3333C67.2907 27.3333 68.626 22.8286 65.7967 20.902L37.8128 1.84583C35.504 0.273608 32.4961 0.273608 30.1873 1.84583L2.20347 20.902C-0.625798 22.8286 0.709487 27.3333 4.10984 27.3333Z" fill="white"/>
<rect x="14" y="27.3333" width="13.3333" height="26.6667" fill="white"/>
<rect x="40.6667" y="27.3333" width="13.3333" height="26.6667" fill="white"/>
<path opacity="0.5" d="M58.6066 54C59.8692 54 61.0234 54.7133 61.588 55.8426L64.9214 62.5093C66.0295 64.7256 64.4179 67.3333 61.94 67.3333L6.06018 67.3333C3.58224 67.3333 1.97058 64.7256 3.07875 62.5093L6.41209 55.8426C6.97673 54.7133 8.13094 54 9.39351 54L58.6066 54Z" fill="white"/>
</svg>
