<svg width="72" height="72" viewBox="0 0 72 72" fill="none" xmlns="http://www.w3.org/2000/svg">
<path opacity="0.5" fill-rule="evenodd" clip-rule="evenodd" d="M16.0001 5.16667C10.017 5.16667 5.16675 10.0169 5.16675 16V56C5.16675 61.9831 10.017 66.8333 16.0001 66.8333H56.0001C61.9832 66.8333 66.8334 61.9831 66.8334 56V36C66.8334 34.6193 67.9527 33.5 69.3334 33.5C70.7141 33.5 71.8334 34.6193 71.8334 36V56C71.8334 64.7445 64.7446 71.8333 56.0001 71.8333H16.0001C7.25557 71.8333 0.166748 64.7445 0.166748 56V16C0.166748 7.2555 7.25557 0.166672 16.0001 0.166672H36.0001C37.3808 0.166672 38.5001 1.28596 38.5001 2.66667C38.5001 4.04738 37.3808 5.16667 36.0001 5.16667H16.0001Z" fill="white"/>
<path d="M26.5157 49.2984L36.5277 47.8681C37.9719 47.6618 39.3103 46.9926 40.3419 45.9611L62.5909 23.712C62.5909 23.712 57.8233 23.712 53.0556 18.9443C48.288 14.1767 48.2879 9.40903 48.2879 9.40903L26.0389 31.6581C25.0073 32.6897 24.3381 34.028 24.1318 35.4722L22.7015 45.4843C22.3837 47.7092 24.2908 49.6163 26.5157 49.2984Z" fill="white"/>
<path opacity="0.5" d="M67.3582 9.40916L62.5906 4.6415C59.9575 2.0084 55.6884 2.0084 53.0553 4.6415L48.2876 9.40917C48.2876 9.40917 48.2876 14.1768 53.0553 18.9445C57.8229 23.7121 62.5906 23.7121 62.5906 23.7121L67.3582 18.9445C69.9913 16.3114 69.9913 12.0423 67.3582 9.40916Z" fill="white"/>
</svg>
