<svg width="70" height="68" viewBox="0 0 70 68" fill="none" xmlns="http://www.w3.org/2000/svg">
<path opacity="0.5" fill-rule="evenodd" clip-rule="evenodd" d="M31.5 64.8333C31.5 63.4526 32.6193 62.3333 34 62.3333H67.3333C68.714 62.3333 69.8333 63.4526 69.8333 64.8333C69.8333 66.2141 68.714 67.3333 67.3333 67.3333H34C32.6193 67.3333 31.5 66.2141 31.5 64.8333Z" fill="white"/>
<path fill-rule="evenodd" clip-rule="evenodd" d="M67.3333 34C67.3333 52.4095 52.4095 67.3333 34 67.3333C15.5905 67.3333 0.666626 52.4095 0.666626 34C0.666626 15.5905 15.5905 0.666672 34 0.666672C52.4095 0.666672 67.3333 15.5905 67.3333 34ZM39 14C39 16.7614 36.7614 19 34 19C31.2385 19 29 16.7614 29 14C29 11.2386 31.2385 9.00001 34 9.00001C36.7614 9.00001 39 11.2386 39 14ZM14 39C16.7614 39 19 36.7614 19 34C19 31.2386 16.7614 29 14 29C11.2385 29 8.99996 31.2386 8.99996 34C8.99996 36.7614 11.2385 39 14 39ZM57.3333 34C57.3333 36.7614 55.0947 39 52.3333 39C49.5719 39 47.3333 36.7614 47.3333 34C47.3333 31.2386 49.5719 29 52.3333 29C55.0947 29 57.3333 31.2386 57.3333 34ZM34 59C36.7614 59 39 56.7614 39 54C39 51.2386 36.7614 49 34 49C31.2385 49 29 51.2386 29 54C29 56.7614 31.2385 59 34 59Z" fill="white"/>
</svg>
