<svg width="68" height="68" viewBox="0 0 68 68" fill="none" xmlns="http://www.w3.org/2000/svg">
<path opacity="0.5" d="M0.666687 14C0.666687 6.6362 6.63622 0.666664 14 0.666664H54C61.3638 0.666664 67.3334 6.6362 67.3334 14V54C67.3334 61.3638 61.3638 67.3333 54 67.3333H14C6.63622 67.3333 0.666687 61.3638 0.666687 54V14Z" fill="white"/>
<path d="M50.6667 67.3333V0.666664H54C61.3638 0.666664 67.3334 6.6362 67.3334 14V54C67.3334 61.3638 61.3638 67.3333 54 67.3333H50.6667Z" fill="white"/>
<path d="M17.3334 67.3333V0.666664H14C6.63622 0.666664 0.666687 6.6362 0.666687 14V54C0.666687 61.3638 6.63622 67.3333 14 67.3333H17.3334Z" fill="white"/>
<path fill-rule="evenodd" clip-rule="evenodd" d="M56.5 23.1667L11.5 23.1667L11.5 18.1667L56.5 18.1667L56.5 23.1667Z" fill="white"/>
<path fill-rule="evenodd" clip-rule="evenodd" d="M56.5 49.8333L11.5 49.8333L11.5 44.8333L56.5 44.8333L56.5 49.8333Z" fill="white"/>
</svg>
