<svg width="115" height="100" viewBox="0 0 115 100" fill="none" xmlns="http://www.w3.org/2000/svg">
<g clip-path="url(#clip0_1_1418)">
<path d="M107.889 51.9465H66.7008C64.1608 51.9465 62.1243 53.9831 62.1243 56.5231V83.9821C62.1243 86.4992 64.1608 88.5586 66.7008 88.5586H78.142V93.1351H96.4481V88.5586H107.889C110.406 88.5586 112.443 86.4992 112.443 83.9821L112.466 56.5231C112.466 53.9831 110.406 51.9465 107.889 51.9465ZM107.889 83.9821H66.7008V56.5231H107.889V83.9821Z" fill="white"/>
</g>
<g clip-path="url(#clip1_1_1418)">
<path d="M28.6885 32.5821C16.8067 32.5821 7.17212 42.2167 7.17212 54.0985C7.17212 65.9804 16.8067 75.6149 28.6885 75.6149C30.6728 75.6149 32.2746 74.0131 32.2746 72.0289C32.2746 71.0965 31.916 70.2597 31.3422 69.6142C30.7924 68.9927 30.4337 68.1559 30.4337 67.2474C30.4337 65.2631 32.0355 63.6614 34.0198 63.6614H38.2514C44.8497 63.6614 50.2049 58.3062 50.2049 51.7078C50.2049 41.1409 40.5704 32.5821 28.6885 32.5821ZM15.5396 54.0985C13.5553 54.0985 11.9535 52.4967 11.9535 50.5124C11.9535 48.5282 13.5553 46.9264 15.5396 46.9264C17.5239 46.9264 19.1257 48.5282 19.1257 50.5124C19.1257 52.4967 17.5239 54.0985 15.5396 54.0985ZM22.7117 44.5357C20.7275 44.5357 19.1257 42.9339 19.1257 40.9496C19.1257 38.9653 20.7275 37.3635 22.7117 37.3635C24.696 37.3635 26.2978 38.9653 26.2978 40.9496C26.2978 42.9339 24.696 44.5357 22.7117 44.5357ZM34.6653 44.5357C32.681 44.5357 31.0792 42.9339 31.0792 40.9496C31.0792 38.9653 32.681 37.3635 34.6653 37.3635C36.6496 37.3635 38.2514 38.9653 38.2514 40.9496C38.2514 42.9339 36.6496 44.5357 34.6653 44.5357ZM41.8374 54.0985C39.8532 54.0985 38.2514 52.4967 38.2514 50.5124C38.2514 48.5282 39.8532 46.9264 41.8374 46.9264C43.8217 46.9264 45.4235 48.5282 45.4235 50.5124C45.4235 52.4967 43.8217 54.0985 41.8374 54.0985Z" fill="white"/>
</g>
<g clip-path="url(#clip2_1_1418)">
<path d="M80.6235 13.4344L67.189 0L65.0702 2.11885L68.6467 5.69536L60.9076 13.4344C60.021 14.321 60.021 15.7486 60.9076 16.6202L69.1726 24.8853C69.6084 25.3211 70.1945 25.5465 70.7655 25.5465C71.3366 25.5465 71.9226 25.3211 72.3584 24.8853L80.6235 16.6202C81.5101 15.7486 81.5101 14.321 80.6235 13.4344ZM63.5674 15.0273L70.7655 7.82924L77.9636 15.0273H63.5674ZM84.2901 17.2814C84.2901 17.2814 81.2847 20.5424 81.2847 22.541C81.2847 24.194 82.6371 25.5465 84.2901 25.5465C85.9431 25.5465 87.2956 24.194 87.2956 22.541C87.2956 20.5424 84.2901 17.2814 84.2901 17.2814ZM58.7437 30.0547H88.7983V36.0656H58.7437V30.0547Z" fill="white"/>
</g>
<defs>
<clipPath id="clip0_1_1418">
<rect width="54.9181" height="54.9181" fill="white" transform="translate(59.8359 45.0818)"/>
</clipPath>
<clipPath id="clip1_1_1418">
<rect width="57.3771" height="57.3771" fill="white" transform="translate(0 25.41)"/>
</clipPath>
<clipPath id="clip2_1_1418">
<rect width="36.0656" height="36.0656" fill="white" transform="translate(55.7383)"/>
</clipPath>
</defs>
</svg>
