<svg width="138" height="100" viewBox="0 0 138 100" fill="none" xmlns="http://www.w3.org/2000/svg">
<g clip-path="url(#clip0_137_907)">
<path d="M14.1243 27.9662H77.6835V20.9041H14.1243C10.2401 20.9041 7.06214 24.082 7.06214 27.9662V66.808H0V77.4012H49.435V66.808H14.1243V27.9662ZM81.2146 35.0283H60.0282C58.0861 35.0283 56.4971 36.6173 56.4971 38.5594V73.8701C56.4971 75.8122 58.0861 77.4012 60.0282 77.4012H81.2146C83.1567 77.4012 84.7457 75.8122 84.7457 73.8701V38.5594C84.7457 36.6173 83.1567 35.0283 81.2146 35.0283ZM77.6835 66.808H63.5592V42.0905H77.6835V66.808Z" fill="white"/>
</g>
<path d="M120.06 14.5512L111.703 6.1942C111.063 5.55402 110.18 5.19067 109.263 5.19067H93.3972C91.494 5.19067 89.9368 6.74788 89.9368 8.65112V32.8743C89.9368 34.7775 91.494 36.3347 93.3972 36.3347H117.62C119.524 36.3347 121.081 34.7775 121.081 32.8743V17.0081C121.081 16.0911 120.717 15.2087 120.06 14.5512ZM96.8577 12.1116H108.969V15.572H96.8577V12.1116ZM114.16 29.4138H96.8577V25.9534H114.16V29.4138ZM114.16 22.4929H96.8577V19.0325H114.16V22.4929Z" fill="white"/>
<g clip-path="url(#clip1_137_907)">
<path d="M122.14 68.4226V79.3431H131.78C131.78 73.7245 127.58 69.0974 122.14 68.4226ZM109.746 87.6058C109.746 93.6927 114.676 98.6228 120.763 98.6228C126.85 98.6228 131.78 93.6927 131.78 87.6058V82.0974H109.746V87.6058ZM119.386 68.4226C113.946 69.0974 109.746 73.7245 109.746 79.3431H119.386V68.4226Z" fill="white"/>
</g>
<defs>
<clipPath id="clip0_137_907">
<rect width="84.7457" height="84.7457" fill="white" transform="translate(0 6.77978)"/>
</clipPath>
<clipPath id="clip1_137_907">
<rect width="33.0508" height="33.0508" fill="white" transform="translate(104.237 66.9491)"/>
</clipPath>
</defs>
</svg>
