<svg width="176" height="100" viewBox="0 0 176 100" fill="none" xmlns="http://www.w3.org/2000/svg">
<g clip-path="url(#clip0_1_1425)">
<path d="M169.781 76.389H167.429V70.1166C167.429 68.3917 166.017 66.9804 164.292 66.9804H158.02V64.6283C158.02 62.4643 156.264 60.708 154.1 60.708C151.936 60.708 150.18 62.4643 150.18 64.6283V66.9804H143.907C142.182 66.9804 140.787 68.3917 140.787 70.1166V76.0754H143.123C145.46 76.0754 147.357 77.9728 147.357 80.3093C147.357 82.6457 145.46 84.5431 143.123 84.5431H140.771V90.5019C140.771 92.2268 142.182 93.6381 143.907 93.6381H149.866V91.286C149.866 88.9495 151.763 87.0521 154.1 87.0521C156.436 87.0521 158.334 88.9495 158.334 91.286V93.6381H164.292C166.017 93.6381 167.429 92.2268 167.429 90.5019V84.2295H169.781C171.945 84.2295 173.701 82.4732 173.701 80.3093C173.701 78.1453 171.945 76.389 169.781 76.389Z" fill="white"/>
</g>
<g clip-path="url(#clip1_1_1425)">
<path d="M125.135 25H50.1348C45.5515 25 41.8015 28.75 41.8015 33.3333V66.6667C41.8015 71.25 45.5515 75 50.1348 75H125.135C129.718 75 133.468 71.25 133.468 66.6667V33.3333C133.468 28.75 129.718 25 125.135 25ZM83.4682 54.1667H70.9682V66.6667H62.6348V54.1667H50.1348V45.8333H62.6348V33.3333H70.9682V45.8333H83.4682V54.1667ZM102.218 62.5C98.7598 62.5 95.9682 59.7083 95.9682 56.25C95.9682 52.7917 98.7598 50 102.218 50C105.677 50 108.468 52.7917 108.468 56.25C108.468 59.7083 105.677 62.5 102.218 62.5ZM118.885 50C115.427 50 112.635 47.2083 112.635 43.75C112.635 40.2917 115.427 37.5 118.885 37.5C122.343 37.5 125.135 40.2917 125.135 43.75C125.135 47.2083 122.343 50 118.885 50Z" fill="white"/>
</g>
<g clip-path="url(#clip2_1_1425)">
<path d="M21.1694 1.05063C21.1694 1.05063 22.3298 5.20609 22.3298 8.57751C22.3298 11.8078 20.2129 14.4265 16.9826 14.4265C13.7366 14.4265 11.2904 11.8078 11.2904 8.57751L11.3374 8.01299C8.16986 11.7764 6.27246 16.6532 6.27246 21.9534C6.27246 28.8844 11.8863 34.4982 18.8173 34.4982C25.7483 34.4982 31.3621 28.8844 31.3621 21.9534C31.3621 13.5013 27.3007 5.95878 21.1694 1.05063ZM18.3625 29.7939C15.5713 29.7939 13.3132 27.5986 13.3132 24.8701C13.3132 22.3297 14.9597 20.5421 17.7196 19.9776C20.4951 19.4131 23.3648 18.0802 24.9642 15.9319C25.5758 17.9547 25.8894 20.0874 25.8894 22.267C25.8894 26.4225 22.518 29.7939 18.3625 29.7939Z" fill="white"/>
</g>
<defs>
<clipPath id="clip0_1_1425">
<rect width="37.6344" height="37.6344" fill="white" transform="translate(137.635 59.1399)"/>
</clipPath>
<clipPath id="clip1_1_1425">
<rect width="100" height="100" fill="white" transform="translate(37.6348)"/>
</clipPath>
<clipPath id="clip2_1_1425">
<rect width="37.6344" height="37.6344" fill="white"/>
</clipPath>
</defs>
</svg>
