<svg width="80" height="100" viewBox="0 0 80 100" fill="none" xmlns="http://www.w3.org/2000/svg">
<path d="M40.0561 52.4566C37.6219 52.4566 35.6499 54.4286 35.6499 56.8628C35.6499 59.297 37.6219 61.2689 40.0561 61.2689C42.4902 61.2689 44.4622 59.297 44.4622 56.8628C44.4622 54.4286 42.4902 52.4566 40.0561 52.4566Z" fill="white"/>
<path d="M40.0562 35.2941C28.5015 35.2941 19.1038 44.353 18.5492 55.7535L12.6332 63.6415C11.8629 64.6583 12.6024 66.1065 13.8657 66.1065H18.4875V75.3502C18.4875 78.7395 21.2606 81.5126 24.65 81.5126H27.7312V90.7564H49.2999V76.3362C56.5716 72.8852 61.6248 65.4594 61.6248 56.8628C61.6248 44.9384 51.9805 35.2941 40.0562 35.2941ZM49.2999 56.8628C49.2999 57.2633 49.2691 57.6639 49.2382 58.0645L51.7957 60.0981C52.0422 60.2829 52.1038 60.5911 51.9497 60.8684L49.4847 65.1513C49.3307 65.4286 48.9917 65.521 48.7452 65.4286L45.6948 64.1961C45.0478 64.6891 44.3699 65.0897 43.6304 65.3978L43.1374 68.6639C43.1066 68.972 42.8293 69.1877 42.5212 69.1877H37.5912C37.2831 69.1877 37.0366 68.972 36.9749 68.6639L36.5127 65.3978C35.7424 65.0897 35.0646 64.6891 34.4175 64.1961L31.3671 65.4286C31.0898 65.521 30.7508 65.4286 30.5968 65.1513L28.1318 60.8684C27.9777 60.6219 28.0394 60.2829 28.2859 60.0981L30.8741 58.0645C30.8433 57.6639 30.8125 57.2633 30.8125 56.8628C30.8125 56.4622 30.8741 56.0308 30.9357 55.6611L28.3167 53.6275C28.0702 53.4426 28.0085 53.1345 28.1626 52.8264L30.6276 48.5743C30.7817 48.2969 31.0898 48.2045 31.3671 48.2969L34.4483 49.5294C35.0646 49.0673 35.7733 48.6359 36.5127 48.3278L36.9749 45.0616C37.0366 44.7535 37.2831 44.5378 37.5912 44.5378H42.5212C42.8293 44.5378 43.0758 44.7535 43.1374 45.0616L43.5996 48.3278C44.3391 48.6359 45.017 49.0364 45.664 49.5294L48.7452 48.2969C49.0226 48.2045 49.3615 48.2969 49.4847 48.5743L51.9497 52.8264C52.1038 53.1037 52.0422 53.4426 51.7957 53.6275L49.1766 55.6611C49.2691 56.0308 49.2999 56.4314 49.2999 56.8628Z" fill="white"/>
<path d="M62.1841 4.41177C61.5077 4.41177 60.8165 4.47059 60.1253 4.61765C56.0665 5.39706 52.8312 8.67647 52.0665 12.7353C51.3606 16.5735 52.7724 20.103 55.3312 22.3824C55.9636 22.9412 56.3018 23.7206 56.3018 24.5441V27.9412C56.3018 29.5588 57.6253 30.8824 59.243 30.8824H59.6547C60.1694 31.7647 61.0959 32.353 62.1841 32.353C63.2724 32.353 64.2136 31.7647 64.7136 30.8824H65.1253C66.743 30.8824 68.0665 29.5588 68.0665 27.9412V24.5441C68.0665 23.7353 68.39 22.9412 69.0077 22.3971C71.14 20.5147 72.4783 17.7647 72.4783 14.7059C72.4783 9.01471 67.8753 4.41177 62.1841 4.41177ZM65.1253 27.9412H59.243V26.4706H65.1253V27.9412ZM65.1253 25H59.243V23.5294H65.1253V25ZM62.9194 16.7794V20.5882H61.4489V16.7794L58.7577 14.1029L59.8018 13.0588L62.1841 15.4412L64.5665 13.0588L65.6106 14.1029L62.9194 16.7794Z" fill="white"/>
</svg>
