<svg width="103" height="100" viewBox="0 0 103 100" fill="none" xmlns="http://www.w3.org/2000/svg">
<g clip-path="url(#clip0_1_1412)">
<path d="M90.0004 1.38892H81.6671V4.16669H90.0004V1.38892ZM95.5976 10.2639L97.5699 8.29169C96.9726 7.58336 96.3199 6.91669 95.6115 6.33336L93.6393 8.30558C91.4865 6.58336 88.7782 5.55558 85.8337 5.55558C78.931 5.55558 73.3337 11.1528 73.3337 18.0556C73.3337 24.9584 78.9171 30.5556 85.8337 30.5556C92.7504 30.5556 98.3337 24.9584 98.3337 18.0556C98.3337 15.1111 97.306 12.4028 95.5976 10.2639ZM85.8337 27.7778C80.4587 27.7778 76.1115 23.4306 76.1115 18.0556C76.1115 12.6806 80.4587 8.33336 85.8337 8.33336C91.2087 8.33336 95.556 12.6806 95.556 18.0556C95.556 23.4306 91.2087 27.7778 85.8337 27.7778ZM85.3893 20.8334H77.9865C78.7782 23.0834 80.5143 24.8889 82.7226 25.7778L82.5699 25.6945L85.3893 20.8334ZM93.681 15.2778C92.8893 13.0556 91.2087 11.2639 89.0421 10.3611L86.1949 15.2778H93.681ZM83.9032 26.1528C84.5282 26.3056 85.1671 26.3889 85.8337 26.3889C87.6949 26.3889 89.4032 25.7639 90.7921 24.7361L87.8615 19.3195L83.9032 26.1528ZM79.6532 12.4861C78.3199 13.9584 77.5004 15.9167 77.5004 18.0556C77.5004 18.5278 77.556 18.9861 77.6254 19.4445H84.181L79.6532 12.4861ZM91.8615 23.7917C93.2921 22.3056 94.1671 20.2778 94.1671 18.0556C94.1671 17.5834 94.1115 17.125 94.0421 16.6667H88.0143L91.8615 23.7917ZM87.681 9.93058C87.0837 9.80558 86.4726 9.72225 85.8337 9.72225C83.8893 9.72225 82.0976 10.4028 80.681 11.5139L83.9032 16.4584L87.681 9.93058Z" fill="white"/>
</g>
<g clip-path="url(#clip1_1_1412)">
<path d="M56.6667 60H40V76.6666H56.6667V60ZM53.3333 23.3333V30H26.6667V23.3333H20V30H16.6667C12.9667 30 10.0333 33 10.0333 36.6666L10 83.3333C10 87 12.9667 90 16.6667 90H63.3333C67 90 70 87 70 83.3333V36.6666C70 33 67 30 63.3333 30H60V23.3333H53.3333ZM63.3333 83.3333H16.6667V46.6666H63.3333V83.3333Z" fill="white"/>
</g>
<defs>
<clipPath id="clip0_1_1412">
<rect width="33.3333" height="33.3333" fill="white" transform="translate(69.167)"/>
</clipPath>
<clipPath id="clip1_1_1412">
<rect width="80" height="80" fill="white" transform="translate(0 20)"/>
</clipPath>
</defs>
</svg>
