<svg width="64" height="70" viewBox="0 0 64 70" fill="none" xmlns="http://www.w3.org/2000/svg">
<path fill-rule="evenodd" clip-rule="evenodd" d="M16.6667 0.166656C18.0475 0.166656 19.1667 1.28594 19.1667 2.66666V12.6667C19.1667 14.0474 18.0475 15.1667 16.6667 15.1667C15.286 15.1667 14.1667 14.0474 14.1667 12.6667V2.66666C14.1667 1.28594 15.286 0.166656 16.6667 0.166656Z" fill="white"/>
<path fill-rule="evenodd" clip-rule="evenodd" d="M43.3333 0.166656C44.714 0.166656 45.8333 1.28594 45.8333 2.66666V12.6667C45.8333 14.0474 44.714 15.1667 43.3333 15.1667C41.9525 15.1667 40.8333 14.0474 40.8333 12.6667V2.66666C40.8333 1.28594 41.9525 0.166656 43.3333 0.166656Z" fill="white"/>
<path opacity="0.5" d="M0 21C0 13.6362 5.96954 7.66666 13.3333 7.66666H46.6667C54.0305 7.66666 60 13.6362 60 21V56C60 63.3638 54.0305 69.3333 46.6667 69.3333H13.3333C5.96954 69.3333 0 63.3638 0 56V21Z" fill="white"/>
<path d="M53.8089 37.6341C55.9877 35.4553 59.5203 35.4553 61.6991 37.6341C63.878 39.813 63.878 43.3455 61.6991 45.5244L44.9831 62.2404C44.5809 62.6426 44.0828 62.9355 43.5358 63.0914L34.1976 65.7536C33.8206 65.8611 33.4722 65.5127 33.5797 65.1357L36.2418 55.7975C36.3978 55.2505 36.6907 54.7523 37.0929 54.3501L53.8089 37.6341Z" fill="white"/>
<path fill-rule="evenodd" clip-rule="evenodd" d="M45.8333 26C45.8333 27.3807 44.714 28.5 43.3333 28.5H16.6666C15.2859 28.5 14.1666 27.3807 14.1666 26C14.1666 24.6193 15.2859 23.5 16.6666 23.5L43.3333 23.5C44.714 23.5 45.8333 24.6193 45.8333 26Z" fill="white"/>
<path fill-rule="evenodd" clip-rule="evenodd" d="M39.1667 39.3333C39.1667 40.714 38.0475 41.8333 36.6667 41.8333H16.6667C15.286 41.8333 14.1667 40.714 14.1667 39.3333C14.1667 37.9526 15.286 36.8333 16.6667 36.8333H36.6667C38.0475 36.8333 39.1667 37.9526 39.1667 39.3333Z" fill="white"/>
<path fill-rule="evenodd" clip-rule="evenodd" d="M25.8333 52.6667C25.8333 54.0474 24.714 55.1667 23.3333 55.1667H16.6666C15.2859 55.1667 14.1666 54.0474 14.1666 52.6667C14.1666 51.2859 15.2859 50.1667 16.6666 50.1667H23.3333C24.714 50.1667 25.8333 51.2859 25.8333 52.6667Z" fill="white"/>
</svg>
