<svg width="23" height="14" viewBox="0 0 23 14" fill="none" xmlns="http://www.w3.org/2000/svg">
<path fill-rule="evenodd" clip-rule="evenodd" d="M21.0937 1.99338H11.2013C10.6889 1.99338 10.2739 1.57111 10.2739 1.06438C10.2739 0.541639 10.6889 0.136841 11.2013 0.136841H21.0937C21.6062 0.136841 22.0211 0.541639 22.0211 1.06438C22.0211 1.57111 21.6062 1.99338 21.0937 1.99338ZM21.0918 7.84849H1.30839C0.795937 7.84849 0.381023 7.42622 0.381023 6.92095C0.381023 6.39821 0.795937 5.99341 1.30839 5.99341H21.0918C21.6043 5.99341 22.0192 6.39821 22.0192 6.92095C22.0192 7.42767 21.6043 7.84849 21.0918 7.84849ZM6.38976 13.7051H21.0937C21.6062 13.7051 22.0211 13.2828 22.0211 12.7761C22.0211 12.2533 21.6062 11.8485 21.0937 11.8485H6.38976C5.87731 11.8485 5.46239 12.2533 5.46239 12.7761C5.46239 13.2828 5.87731 13.7051 6.38976 13.7051Z" fill="black"/>
</svg>
