<svg width="68" height="60" viewBox="0 0 68 60" fill="none" xmlns="http://www.w3.org/2000/svg">
<path opacity="0.5" d="M22.0208 2.96866L17.3333 10H14C6.63616 10 0.666626 15.9695 0.666626 23.3333V46.6667C0.666626 54.0305 6.63616 60 14 60H54C61.3638 60 67.3333 54.0305 67.3333 46.6667V23.3333C67.3333 15.9695 61.3638 10 54 10H50.6666L45.9791 2.96867C44.7426 1.11401 42.6611 0 40.4321 0H27.5679C25.3388 0 23.2573 1.11401 22.0208 2.96866Z" fill="white"/>
<path d="M44 35C44 40.5228 39.5228 45 34 45C28.4772 45 24 40.5228 24 35C24 29.4772 28.4772 25 34 25C39.5228 25 44 29.4772 44 35Z" fill="white"/>
<circle cx="34" cy="10" r="3.33333" fill="white"/>
</svg>
