<svg width="100" height="100" viewBox="0 0 100 100" fill="none" xmlns="http://www.w3.org/2000/svg">
<g clip-path="url(#clip0_1_1408)">
<path d="M39.1666 43.75L59.0416 9.33334C56.1249 8.70834 53.1249 8.33334 49.9999 8.33334C39.9999 8.33334 30.8333 11.875 23.6666 17.7083L38.9166 44.1667L39.1666 43.75ZM89.7499 37.5C85.9166 25.3333 76.6249 15.5833 64.7499 11.0833L49.4999 37.5H89.7499ZM90.8333 41.6667H59.6249L60.8333 43.75L80.6666 78.125C87.4999 70.7083 91.6666 60.875 91.6666 50C91.6666 47.125 91.3749 44.375 90.8333 41.6667ZM35.5833 50L19.3333 21.875C12.5416 29.2917 8.33325 39.125 8.33325 50C8.33325 52.875 8.62492 55.625 9.16659 58.3333H40.3749L35.5833 50ZM10.2499 62.5C14.0833 74.6667 23.3749 84.4167 35.2499 88.9167L50.4999 62.5H10.2499ZM57.2083 62.5L40.9583 90.6667C43.8749 91.2917 46.8749 91.6667 49.9999 91.6667C59.9999 91.6667 69.1666 88.125 76.3333 82.2917L61.0833 55.8333L57.2083 62.5Z" fill="white"/>
</g>
<defs>
<clipPath id="clip0_1_1408">
<rect width="100" height="100" fill="white"/>
</clipPath>
</defs>
</svg>
