<svg width="72" height="72" viewBox="0 0 72 72" fill="none" xmlns="http://www.w3.org/2000/svg">
<path opacity="0.5" fill-rule="evenodd" clip-rule="evenodd" d="M19.3335 40.1667C20.7142 40.1667 21.8335 41.2859 21.8335 42.6667V52.6667C21.8335 54.0474 20.7142 55.1667 19.3335 55.1667C17.9528 55.1667 16.8335 54.0474 16.8335 52.6667V42.6667C16.8335 41.2859 17.9528 40.1667 19.3335 40.1667Z" fill="white"/>
<path opacity="0.5" fill-rule="evenodd" clip-rule="evenodd" d="M32.6667 33.5C34.0475 33.5 35.1667 34.6193 35.1667 36V52.6667C35.1667 54.0474 34.0475 55.1667 32.6667 55.1667C31.286 55.1667 30.1667 54.0474 30.1667 52.6667V36C30.1667 34.6193 31.286 33.5 32.6667 33.5Z" fill="white"/>
<path opacity="0.5" fill-rule="evenodd" clip-rule="evenodd" d="M46 40.1667C47.3807 40.1667 48.5 41.2859 48.5 42.6667V52.6667C48.5 54.0474 47.3807 55.1667 46 55.1667C44.6193 55.1667 43.5 54.0474 43.5 52.6667V42.6667C43.5 41.2859 44.6193 40.1667 46 40.1667Z" fill="white"/>
<path opacity="0.5" fill-rule="evenodd" clip-rule="evenodd" d="M59.3335 33.5C60.7142 33.5 61.8335 34.6193 61.8335 36V52.6667C61.8335 54.0474 60.7142 55.1667 59.3335 55.1667C57.9528 55.1667 56.8335 54.0474 56.8335 52.6667V36C56.8335 34.6193 57.9528 33.5 59.3335 33.5Z" fill="white"/>
<path fill-rule="evenodd" clip-rule="evenodd" d="M2.66675 0.166656C4.04746 0.166656 5.16675 1.28594 5.16675 2.66666V56C5.16675 61.9831 10.017 66.8333 16.0001 66.8333H69.3334C70.7141 66.8333 71.8334 67.9526 71.8334 69.3333C71.8334 70.714 70.7141 71.8333 69.3334 71.8333H16.0001C7.25557 71.8333 0.166748 64.7445 0.166748 56V2.66666C0.166748 1.28594 1.28604 0.166656 2.66675 0.166656Z" fill="white"/>
<path fill-rule="evenodd" clip-rule="evenodd" d="M61.1013 14.2322C62.0776 15.2085 62.0776 16.7915 61.1013 17.7678L52.482 26.3871C48.9022 29.9669 43.0982 29.9669 39.5184 26.3871L35.6131 22.4818C33.9859 20.8546 31.3477 20.8546 29.7206 22.4818L21.1013 31.1011C20.125 32.0774 18.542 32.0774 17.5657 31.1011C16.5894 30.1248 16.5894 28.5419 17.5657 27.5656L26.185 18.9463C29.7648 15.3665 35.5688 15.3665 39.1486 18.9463L43.0539 22.8515C44.6811 24.4787 47.3193 24.4787 48.9464 22.8515L57.5657 14.2322C58.542 13.2559 60.125 13.2559 61.1013 14.2322Z" fill="white"/>
</svg>
