<svg width="70" height="70" viewBox="0 0 70 70" fill="none" xmlns="http://www.w3.org/2000/svg">
<path opacity="0.4" d="M37.9166 8.74994H32.0833C17.5858 8.74994 5.83325 20.5025 5.83325 34.9999V49.5833C5.83325 56.0266 11.0566 61.2499 17.4999 61.2499H37.9166C52.4141 61.2499 64.1666 49.4974 64.1666 34.9999C64.1666 20.5025 52.4141 8.74994 37.9166 8.74994Z" fill="#28303F"/>
<path fill-rule="evenodd" clip-rule="evenodd" d="M27.4241 29.9986V27.7632C27.4241 23.5791 30.816 20.1873 35 20.1873C39.184 20.1873 42.5759 23.5792 42.5759 27.7632V29.9985C46.3863 30.9446 49.2104 34.3881 49.2104 38.4911V40.2937C49.2104 45.1262 45.2929 49.0437 40.4604 49.0437H29.5398C24.7073 49.0437 20.7898 45.1262 20.7898 40.2937V38.4911C20.7898 34.3881 23.6138 30.9447 27.4241 29.9986ZM31.2158 29.7411V27.7632C31.2158 25.6732 32.91 23.979 35 23.979C37.09 23.979 38.7842 25.6732 38.7842 27.7632V29.7411H31.2158ZM29.5398 33.5328H40.4604C43.1988 33.5328 45.4187 35.7527 45.4187 38.4911V40.2937C45.4187 43.0321 43.1988 45.252 40.4604 45.252H29.5398C26.8014 45.252 24.5815 43.0321 24.5815 40.2937V38.4911C24.5815 35.7527 26.8014 33.5328 29.5398 33.5328Z" fill="#28303F"/>
</svg>
