<svg width="68" height="54" viewBox="0 0 68 54" fill="none" xmlns="http://www.w3.org/2000/svg">
<path opacity="0.5" fill-rule="evenodd" clip-rule="evenodd" d="M14.0002 0.333336H54.0002C57.5887 0.333336 60.515 3.16864 60.6611 6.72128H43.6659C39.984 6.72128 36.9992 9.70604 36.9992 13.3879V43.6667H7.3335V7C7.3335 3.3181 10.3183 0.333336 14.0002 0.333336Z" fill="white"/>
<path d="M40.6667 17C40.6667 13.3181 43.6515 10.3333 47.3334 10.3333H60.6667C64.3486 10.3333 67.3334 13.3181 67.3334 17V47C67.3334 50.6819 64.3486 53.6667 60.6667 53.6667H47.3334C43.6515 53.6667 40.6667 50.6819 40.6667 47V17Z" fill="white"/>
<path d="M37.3334 43.6667H5.66675C2.90532 43.6667 0.666748 45.9052 0.666748 48.6667C0.666748 51.4281 2.90532 53.6667 5.66675 53.6667H37.3334V43.6667Z" fill="white"/>
</svg>
