<svg width="72" height="72" viewBox="0 0 72 72" fill="none" xmlns="http://www.w3.org/2000/svg">
<path opacity="0.5" fill-rule="evenodd" clip-rule="evenodd" d="M0.166748 16C0.166748 7.25548 7.25557 0.166656 16.0001 0.166656H21.1853C22.566 0.166656 23.6853 1.28594 23.6853 2.66666C23.6853 4.04737 22.566 5.16666 21.1853 5.16666H16.0001C10.017 5.16666 5.16675 10.0169 5.16675 16V21.1852C5.16675 22.5659 4.04746 23.6852 2.66675 23.6852C1.28604 23.6852 0.166748 22.5659 0.166748 21.1852V16ZM48.3149 2.66666C48.3149 1.28594 49.4342 0.166656 50.8149 0.166656H56.0001C64.7446 0.166656 71.8334 7.25548 71.8334 16V21.1852C71.8334 22.5659 70.7141 23.6852 69.3334 23.6852C67.9527 23.6852 66.8334 22.5659 66.8334 21.1852V16C66.8334 10.0169 61.9832 5.16666 56.0001 5.16666H50.8149C49.4342 5.16666 48.3149 4.04737 48.3149 2.66666ZM2.66675 48.3148C4.04746 48.3148 5.16675 49.4341 5.16675 50.8148V56C5.16675 61.9831 10.017 66.8333 16.0001 66.8333H21.1853C22.566 66.8333 23.6853 67.9526 23.6853 69.3333C23.6853 70.714 22.566 71.8333 21.1853 71.8333H16.0001C7.25557 71.8333 0.166748 64.7445 0.166748 56V50.8148C0.166748 49.4341 1.28604 48.3148 2.66675 48.3148ZM69.3334 48.3148C70.7141 48.3148 71.8334 49.4341 71.8334 50.8148V56C71.8334 64.7445 64.7446 71.8333 56.0001 71.8333H50.8149C49.4342 71.8333 48.3149 70.714 48.3149 69.3333C48.3149 67.9526 49.4342 66.8333 50.8149 66.8333H56.0001C61.9832 66.8333 66.8334 61.9831 66.8334 56V50.8148C66.8334 49.4341 67.9527 48.3148 69.3334 48.3148Z" fill="white"/>
<circle cx="36.0002" cy="36" r="16.6667" fill="white"/>
</svg>
