<svg width="150" height="100" viewBox="0 0 150 100" fill="none" xmlns="http://www.w3.org/2000/svg">
<g clip-path="url(#clip0_1_1446)">
<path d="M90.8647 52.8582L110.696 33L121.273 43.5769L140.021 22.5024L143.749 26.2308L121.273 51.5096L110.696 40.9327L94.8311 56.8245L90.8647 52.8582ZM94.8311 40.9591L110.696 25.0673L121.273 35.6442L143.749 10.3654L140.021 6.63702L121.273 27.7115L110.696 17.1346L90.8647 36.9928L94.8311 40.9591Z" fill="white"/>
</g>
<g clip-path="url(#clip1_1_1446)">
<path d="M11.859 45.5528C9.39824 45.5528 7.41187 47.5392 7.41187 49.9999C7.41187 52.4607 9.39824 54.447 11.859 54.447C14.3197 54.447 16.3061 52.4607 16.3061 49.9999C16.3061 47.5392 14.3197 45.5528 11.859 45.5528ZM11.859 27.7643C9.39824 27.7643 7.41187 29.7507 7.41187 32.2115C7.41187 34.6722 9.39824 36.6586 11.859 36.6586C14.3197 36.6586 16.3061 34.6722 16.3061 32.2115C16.3061 29.7507 14.3197 27.7643 11.859 27.7643ZM11.859 63.3413C9.39824 63.3413 7.41187 65.3573 7.41187 67.7884C7.41187 70.2195 9.42789 72.2355 11.859 72.2355C14.2901 72.2355 16.3061 70.2195 16.3061 67.7884C16.3061 65.3573 14.3197 63.3413 11.859 63.3413ZM20.7532 70.7531H62.2596V64.8236H20.7532V70.7531ZM20.7532 52.9647H62.2596V47.0352H20.7532V52.9647ZM20.7532 29.2467V35.1762H62.2596V29.2467H20.7532Z" fill="white"/>
</g>
<path d="M74.5202 40.9455C59.7029 40.9455 47.6772 52.9711 47.6772 67.7884C47.6772 82.6058 59.7029 94.6314 74.5202 94.6314C89.3375 94.6314 101.363 82.6058 101.363 67.7884C101.363 52.9711 89.3375 40.9455 74.5202 40.9455ZM78.3051 84.1358V89.2628H71.138V84.0821C66.5478 83.1158 62.6556 80.163 62.3603 74.9555H67.6216C67.89 77.774 69.8227 79.9752 74.7349 79.9752C79.9962 79.9752 81.1772 77.3445 81.1772 75.7071C81.1772 73.4792 79.9962 71.3854 74.0102 69.9627C67.3531 68.3521 62.7898 65.6142 62.7898 60.1114C62.7898 55.4944 66.521 52.488 71.138 51.4948V46.3141H78.3051V51.5485C83.2978 52.7564 85.7942 56.5413 85.9553 60.6482H80.6941C80.5599 57.6687 78.9761 55.6286 74.7349 55.6286C70.7085 55.6286 68.2926 57.4539 68.2926 60.0308C68.2926 62.2856 70.0374 63.762 75.4597 65.1578C80.882 66.5537 86.6801 68.889 86.6801 75.6534C86.6532 80.5657 82.9757 83.25 78.3051 84.1358Z" fill="white"/>
<defs>
<clipPath id="clip0_1_1446">
<rect width="63.4615" height="63.4615" fill="white" transform="translate(85.5762)"/>
</clipPath>
<clipPath id="clip1_1_1446">
<rect width="71.1538" height="71.1538" fill="white" transform="translate(0 14.423)"/>
</clipPath>
</defs>
</svg>
