<svg width="142" height="100" viewBox="0 0 142 100" fill="none" xmlns="http://www.w3.org/2000/svg">
<g clip-path="url(#clip0_1_1465)">
<path d="M7.05889 29.0196C8.79154 29.0196 10.1961 27.615 10.1961 25.8824C10.1961 24.1497 8.79154 22.7451 7.05889 22.7451C5.32623 22.7451 3.92163 24.1497 3.92163 25.8824C3.92163 27.615 5.32623 29.0196 7.05889 29.0196Z" fill="white"/>
<path d="M14.5099 31.3726C15.5928 31.3726 16.4706 30.4947 16.4706 29.4118C16.4706 28.3289 15.5928 27.451 14.5099 27.451C13.4269 27.451 12.5491 28.3289 12.5491 29.4118C12.5491 30.4947 13.4269 31.3726 14.5099 31.3726Z" fill="white"/>
<path d="M14.9019 25.098C17.5009 25.098 19.6078 22.9911 19.6078 20.3922C19.6078 17.7932 17.5009 15.6863 14.9019 15.6863C12.3029 15.6863 10.196 17.7932 10.196 20.3922C10.196 22.9911 12.3029 25.098 14.9019 25.098Z" fill="white"/>
</g>
<g clip-path="url(#clip1_1_1465)">
<path d="M129.738 5.71895H95.4247C92.2793 5.71895 89.7057 8.29248 89.7057 11.4379V45.7516C89.7057 48.8971 92.2793 51.4706 95.4247 51.4706H129.738C132.884 51.4706 135.457 48.8971 135.457 45.7516V11.4379C135.457 8.29248 132.884 5.71895 129.738 5.71895ZM124.019 20.0163H115.441V35.7435C115.441 39.6895 112.238 42.8922 108.292 42.8922C104.346 42.8922 101.144 39.6895 101.144 35.7435C101.144 31.7974 104.346 28.5948 108.292 28.5948C109.922 28.5948 111.381 29.1381 112.582 30.0531V14.2974H124.019V20.0163ZM83.9868 17.1569H78.2678V57.1895C78.2678 60.335 80.8414 62.9085 83.9868 62.9085H124.019V57.1895H83.9868V17.1569Z" fill="white"/>
</g>
<g clip-path="url(#clip2_1_1465)">
<path d="M60.2948 42.8105L66.0138 51.3889H57.4354L51.7164 42.8105H45.9975L51.7164 51.3889H43.138L37.419 42.8105H31.7001L37.419 51.3889H28.8406L23.1216 42.8105H20.2622C17.1167 42.8105 14.5718 45.384 14.5718 48.5294L14.5432 82.8431C14.5432 85.9886 17.1167 88.5621 20.2622 88.5621H66.0138C69.1592 88.5621 71.7328 85.9886 71.7328 82.8431V42.8105H60.2948ZM40.9934 74.9796L37.419 82.8431L33.8447 74.9796L25.9811 71.4052L33.8447 67.8309L37.419 59.9673L40.9934 67.8309L48.8569 71.4052L40.9934 74.9796ZM57.2638 65.5147L54.5759 71.4052L51.888 65.5147L45.9975 62.8268L51.888 60.1389L54.5759 54.2484L57.2638 60.1389L63.1543 62.8268L57.2638 65.5147Z" fill="white"/>
</g>
<defs>
<clipPath id="clip0_1_1465">
<rect width="23.5294" height="23.5294" fill="white" transform="translate(0 11.7647)"/>
</clipPath>
<clipPath id="clip1_1_1465">
<rect width="68.6275" height="68.6275" fill="white" transform="translate(72.5488)"/>
</clipPath>
<clipPath id="clip2_1_1465">
<rect width="68.6275" height="68.6275" fill="white" transform="translate(8.82422 31.3726)"/>
</clipPath>
</defs>
</svg>
