<svg width="70" height="59" viewBox="0 0 70 59" fill="none" xmlns="http://www.w3.org/2000/svg">
<path opacity="0.5" d="M56.4333 58.3333C46.8666 58.3333 41.8666 49.4333 40.1666 45.6H29.8333C28.1333 49.5667 23.1333 58.3333 13.5666 58.3333C0.599977 58.3333 0.599976 47.4333 0.599976 42.8C0.599976 37.1667 9.59998 19.4667 11.4 16.1333C11.6421 15.7671 11.9753 15.4701 12.3668 15.2714C12.7583 15.0727 15.5613 14.9792 15.9999 15H53.9999C54.4613 15.0028 57.28 15.1316 57.6736 15.3724C58.0671 15.6133 58.3875 15.9571 58.6 16.3667C60.4 19.7 69.4 37.4333 69.4 43.0333C69.4 47.5667 69.4 58.3333 56.4333 58.3333Z" fill="white"/>
<path d="M56.4333 58.3333C46.8666 58.3333 41.8666 49.4333 40.1666 45.6H29.8333C28.1333 49.5667 23.1333 58.3333 13.5666 58.3333C0.599977 58.3333 0.599976 47.4333 0.599976 42.8C0.599976 37.1667 9.59998 19.4667 11.4 16.1333C11.6421 15.7671 11.9753 15.4701 12.3668 15.2714C12.7583 15.0727 15.5613 14.9792 15.9999 15H53.9999C54.4613 15.0028 57.28 15.1316 57.6736 15.3724C58.0671 15.6133 58.3875 15.9571 58.6 16.3667C60.4 19.7 69.4 37.4333 69.4 43.0333C69.4 47.5667 69.4 58.3333 56.4333 58.3333ZM28.1333 40.7333H41.8666C42.3905 40.7286 42.9023 40.8909 43.3278 41.1965C43.7533 41.5022 44.0705 41.9354 44.2333 42.4333C44.2333 42.4333 48.1 53.4667 56.4333 53.4667C63.8333 53.4667 64.4 49.1 64.4 42.9333C64.4 39.8667 59.0333 28.0667 54.8333 19.8667H15.1666C10.9666 28.0667 5.59998 39.8667 5.59998 42.9333C5.59998 49.1 6.16664 53.4667 13.5666 53.4667C21.9 53.4667 25.7333 42.5333 25.7666 42.4333C25.9295 41.9354 26.2466 41.5022 26.6721 41.1965C27.0976 40.8909 27.6094 40.7286 28.1333 40.7333Z" fill="white"/>
<path d="M35 19.8667C34.4161 19.8691 33.8497 19.6672 33.3992 19.2958C32.9486 18.9244 32.6423 18.407 32.5333 17.8333C32.2009 15.6822 32.3009 13.4864 32.8274 11.3744C33.354 9.26237 34.2966 7.27661 35.6 5.53333C37.4058 3.61799 39.6205 2.13473 42.0791 1.194C44.5377 0.253273 47.1768 -0.120676 49.8 0.100001C50.1283 0.100001 50.4534 0.164666 50.7567 0.290302C51.06 0.415939 51.3356 0.600088 51.5677 0.832234C51.7999 1.06438 51.984 1.33998 52.1097 1.64329C52.2353 1.94661 52.3 2.2717 52.3 2.6C52.3 2.92831 52.2353 3.2534 52.1097 3.55671C51.984 3.86002 51.7999 4.13562 51.5677 4.36777C51.3356 4.59991 51.06 4.78406 50.7567 4.9097C50.4534 5.03534 50.1283 5.1 49.8 5.1C47.9191 4.90834 46.0192 5.13135 44.2338 5.75333C42.4485 6.37532 40.8212 7.38116 39.4666 8.7C37.7638 11.0841 37.0473 14.0337 37.4666 16.9333C37.5242 17.2573 37.5171 17.5895 37.446 17.9107C37.3749 18.232 37.241 18.5361 37.0521 18.8055C36.8632 19.0749 36.6229 19.3044 36.3452 19.4808C36.0674 19.6572 35.7575 19.777 35.4333 19.8333L35 19.8667Z" fill="white"/>
</svg>
