<svg width="119" height="100" viewBox="0 0 119 100" fill="none" xmlns="http://www.w3.org/2000/svg">
<path d="M49.4791 70.3125H9.89575V76.9097H49.4791V70.3125ZM49.4791 43.9236H9.89575V50.5208H49.4791V43.9236ZM9.89575 63.7153H69.2707V57.1181H9.89575V63.7153ZM9.89575 90.1042H69.2707V83.5069H9.89575V90.1042ZM9.89575 30.7292V37.3264H69.2707V30.7292H9.89575Z" fill="white"/>
<g clip-path="url(#clip0_1_1459)">
<path d="M91.6667 4.16667V45.8333C81.1042 44.7917 72.9167 35.8542 72.9167 25C72.9167 14.1458 81.1042 5.20833 91.6667 4.16667ZM95.8959 4.16667V22.8958H114.583C113.604 13.0208 105.75 5.14583 95.8959 4.16667ZM95.8959 27.1042V45.8333C105.771 44.8542 113.604 36.9792 114.583 27.1042H95.8959Z" fill="white"/>
</g>
<defs>
<clipPath id="clip0_1_1459">
<rect width="50" height="50" fill="white" transform="translate(68.75)"/>
</clipPath>
</defs>
</svg>
