<svg width="48" height="68" viewBox="0 0 48 68" fill="none" xmlns="http://www.w3.org/2000/svg">
<path d="M10.6667 54H37.3334V63.3333C37.3334 65.5425 35.5426 67.3333 33.3334 67.3333H14.6667C12.4576 67.3333 10.6667 65.5425 10.6667 63.3333V54Z" fill="white"/>
<path opacity="0.5" d="M10.6667 54H37.3334V44.1945C37.3334 43.5407 37.6567 42.9327 38.1757 42.5352C43.7431 38.2708 47.3334 31.5547 47.3334 24C47.3334 11.1134 36.8867 0.666672 24.0001 0.666672C11.1134 0.666672 0.666748 11.1134 0.666748 24C0.666748 31.5547 4.25704 38.2708 9.82445 42.5352C10.3435 42.9327 10.6667 43.5407 10.6667 44.1945V54Z" fill="white"/>
<path fill-rule="evenodd" clip-rule="evenodd" d="M15.5657 22.2322C16.542 21.2559 18.125 21.2559 19.1013 22.2322L24.0002 27.1311L28.8991 22.2322C29.8754 21.2559 31.4583 21.2559 32.4346 22.2322C33.4109 23.2086 33.4109 24.7915 32.4346 25.7678L26.5002 31.7022V57.3333C26.5002 58.7141 25.3809 59.8333 24.0002 59.8333C22.6195 59.8333 21.5002 58.7141 21.5002 57.3333V31.7022L15.5657 25.7678C14.5894 24.7915 14.5894 23.2086 15.5657 22.2322Z" fill="white"/>
</svg>
