<svg width="70" height="70" viewBox="0 0 70 70" fill="none" xmlns="http://www.w3.org/2000/svg">
<path fill-rule="evenodd" clip-rule="evenodd" d="M46.2391 29.9843C47.0934 29.13 47.0934 27.745 46.2391 26.8907C45.3849 26.0364 43.9998 26.0364 43.1456 26.8907L39.3746 30.6616C37.3813 32.6549 37.3813 35.8867 39.3746 37.88L43.1456 41.651C43.9998 42.5052 45.3849 42.5052 46.2391 41.651C47.0934 40.7967 47.0934 39.4116 46.2391 38.5574L44.1401 36.4583L61.9788 36.4583C63.1869 36.4583 64.1663 35.479 64.1663 34.2708C64.1663 33.0627 63.1869 32.0833 61.9788 32.0833L44.1401 32.0833L46.2391 29.9843Z" fill="#28303F"/>
<path fill-rule="evenodd" clip-rule="evenodd" d="M19.6875 59.7917H40.8333C48.4848 59.7917 54.6875 53.5889 54.6875 45.9375C54.6875 44.7294 53.7081 43.75 52.5 43.75C51.2919 43.75 50.3125 44.7294 50.3125 45.9375C50.3125 51.1727 46.0685 55.4167 40.8333 55.4167H29.7912C27.2638 58.1095 23.6721 59.7917 19.6875 59.7917ZM29.7912 13.125H40.8333C46.0685 13.125 50.3125 17.369 50.3125 22.6042C50.3125 23.8123 51.2919 24.7917 52.5 24.7917C53.7081 24.7917 54.6875 23.8123 54.6875 22.6042C54.6875 14.9527 48.4848 8.75 40.8333 8.75H19.6875C23.6721 8.75 27.2638 10.4321 29.7912 13.125Z" fill="#28303F"/>
<path opacity="0.4" fill-rule="evenodd" clip-rule="evenodd" d="M5.83337 22.6042C5.83337 14.9527 12.0361 8.75 19.6875 8.75C27.339 8.75 33.5417 14.9527 33.5417 22.6042V45.9375C33.5417 53.589 27.339 59.7917 19.6875 59.7917C12.0361 59.7917 5.83337 53.589 5.83337 45.9375V22.6042Z" fill="#28303F"/>
</svg>
