<svg width="70" height="70" viewBox="0 0 70 70" fill="none" xmlns="http://www.w3.org/2000/svg">
<path opacity="0.4" d="M41.0838 20.4166L28.9161 20.4166L24.8296 15.7294C20.8237 11.1347 25.497 4.26699 31.3455 6.1537L34.0515 7.02664C34.6676 7.22539 35.3322 7.22539 35.9483 7.02664L38.6543 6.1537C44.5029 4.267 49.1761 11.1347 45.1703 15.7294L41.0838 20.4166Z" fill="#28303F"/>
<path opacity="0.4" d="M16.5791 29.7802C18.8622 22.4744 25.6283 17.5 33.2825 17.5H36.7175C44.3718 17.5 51.1379 22.4744 53.4209 29.7802L57.0668 41.4469C60.5883 52.7157 52.1696 64.1667 40.3634 64.1667H29.6367C17.8305 64.1667 9.41182 52.7156 12.9333 41.4469L16.5791 29.7802Z" fill="#28303F"/>
<path d="M34.9993 58.3333C34.9993 55.1117 37.6109 52.5 40.8326 52.5H58.3326C61.5543 52.5 64.1659 55.1117 64.1659 58.3333C64.1659 61.555 61.5543 64.1666 58.3326 64.1666H40.8326C37.6109 64.1666 34.9993 61.555 34.9993 58.3333Z" fill="#28303F"/>
<path d="M34.9993 46.6666C34.9993 43.445 37.6109 40.8333 40.8326 40.8333H56.3882H58.3326C61.5543 40.8333 64.1659 43.445 64.1659 46.6666C64.1659 49.8883 61.5543 52.5 58.3326 52.5H40.8326C37.6109 52.5 34.9993 49.8883 34.9993 46.6666Z" fill="#28303F"/>
</svg>
