<svg width="70" height="70" viewBox="0 0 70 70" fill="none" xmlns="http://www.w3.org/2000/svg">
<path d="M26.25 27.7084C26.25 25.2921 28.2088 23.3334 30.625 23.3334H39.375C41.7912 23.3334 43.75 25.2921 43.75 27.7084V59.7917C43.75 62.208 41.7912 64.1667 39.375 64.1667H30.625C28.2088 64.1667 26.25 62.208 26.25 59.7917V27.7084Z" fill="#28303F"/>
<path opacity="0.4" d="M43.75 45.2083C43.75 42.7921 45.7088 40.8333 48.125 40.8333H56.875C59.2912 40.8333 61.25 42.7921 61.25 45.2083V59.7917C61.25 62.2079 59.2912 64.1667 56.875 64.1667H48.125C45.7088 64.1667 43.75 62.2079 43.75 59.7917V45.2083Z" fill="#28303F"/>
<path opacity="0.4" d="M8.75 39.375C8.75 36.9588 10.7088 35 13.125 35H21.875C24.2912 35 26.25 36.9588 26.25 39.375V59.7917C26.25 62.2079 24.2912 64.1667 21.875 64.1667H13.125C10.7088 64.1667 8.75 62.2079 8.75 59.7917V39.375Z" fill="#28303F"/>
<path d="M33.6131 5.72735C34.0496 4.38377 35.9504 4.38377 36.387 5.72735L36.8445 7.13546C37.0398 7.73632 37.5997 8.14314 38.2315 8.14314H39.712C41.1248 8.14314 41.7121 9.95091 40.5692 10.7813L39.3714 11.6515C38.8603 12.0229 38.6464 12.6811 38.8417 13.282L39.2992 14.6901C39.7357 16.0337 38.1979 17.151 37.055 16.3206L35.8572 15.4503C35.3461 15.079 34.654 15.079 34.1429 15.4503L32.945 16.3206C31.8021 17.151 30.2643 16.0337 30.7009 14.6901L31.1584 13.282C31.3537 12.6811 31.1398 12.0229 30.6287 11.6515L29.4308 10.7813C28.2879 9.95091 28.8753 8.14314 30.288 8.14314H31.7686C32.4004 8.14314 32.9603 7.73632 33.1556 7.13546L33.6131 5.72735Z" fill="#28303F"/>
</svg>
