<svg width="70" height="70" viewBox="0 0 70 70" fill="none" xmlns="http://www.w3.org/2000/svg">
<path fill-rule="evenodd" clip-rule="evenodd" d="M59.0273 30.9641V36.3179C59.0273 38.5271 57.2365 40.3179 55.0273 40.3179H50.0753C47.8662 40.3179 46.0753 38.5271 46.0753 36.3179V30.9641L50.5787 32.9656C51.8346 33.5237 53.2681 33.5237 54.5239 32.9656L59.0273 30.9641ZM42.0278 29.1652V36.2707C42.0278 36.9413 41.4841 37.485 40.8135 37.485C40.1429 37.485 39.5993 36.9413 39.5993 36.2707V28.0843C39.614 28.0919 39.6292 28.0991 39.6447 28.106L42.0278 29.1652Z" fill="#28303F"/>
<path opacity="0.4" d="M65.458 26.6266L54.524 21.767C53.2681 21.2088 51.8346 21.2088 50.5787 21.767L39.6447 26.6266C39.0037 26.9115 39.0037 27.8212 39.6447 28.106L50.5787 32.9656C51.8346 33.5238 53.2681 33.5238 54.524 32.9656L65.458 28.106C66.099 27.8212 66.099 26.9115 65.458 26.6266Z" fill="#28303F"/>
<path opacity="0.4" fill-rule="evenodd" clip-rule="evenodd" d="M47.5907 53.2702H62.2654C64.0537 53.2702 65.5034 51.8205 65.5034 50.0322C65.5034 46.5236 62.3352 43.506 57.7937 42.1705C57.2517 42.0111 56.6717 42.1823 56.2744 42.5841L53.7025 45.1846C53.0688 45.8254 52.0339 45.8254 51.4002 45.1846L48.8284 42.5841C48.4311 42.1823 47.8511 42.0111 47.309 42.1705C45.718 42.6383 44.2956 43.3126 43.1189 44.1421C45.9223 46.7076 47.5792 49.8607 47.5907 53.2702Z" fill="#28303F"/>
<path opacity="0.4" fill-rule="evenodd" clip-rule="evenodd" d="M34.3638 24.2338V34.5041C34.3638 36.7133 32.5729 38.5041 30.3638 38.5041H18.605C16.3958 38.5041 14.605 36.7133 14.605 34.5041V24.2338L21.4751 27.2872C23.3909 28.1387 25.5778 28.1387 27.4937 27.2872L34.3638 24.2338ZM8.43036 21.4895V32.3295C8.43036 33.3526 7.60102 34.1819 6.57798 34.1819C5.55493 34.1819 4.72559 33.3526 4.72559 32.3295V19.8405C4.7481 19.8521 4.77118 19.8632 4.79483 19.8737L8.43036 21.4895Z" fill="#28303F"/>
<path d="M44.1739 17.6168L27.4936 10.2034C25.5778 9.35189 23.3909 9.35189 21.475 10.2034L4.79478 17.6168C3.81695 18.0514 3.81695 19.4392 4.79478 19.8738L21.475 27.2872C23.3909 28.1387 25.5778 28.1387 27.4936 27.2872L44.1739 19.8738C45.1517 19.4392 45.1517 18.0514 44.1739 17.6168Z" fill="#28303F"/>
<path d="M18.8048 41.961L22.7283 45.9282C23.695 46.9058 25.2738 46.9058 26.2405 45.9282L30.1639 41.961C30.77 41.3481 31.6548 41.0869 32.4818 41.33C39.41 43.3674 44.2432 47.9708 44.2432 53.3233C44.2432 56.0514 42.0316 58.263 39.3035 58.263H9.66529C6.93717 58.263 4.72559 56.0514 4.72559 53.3233C4.72559 47.9708 9.55874 43.3674 16.487 41.33C17.3139 41.0869 18.1987 41.3481 18.8048 41.961Z" fill="#28303F"/>
</svg>
