<svg width="47" height="47" viewBox="0 0 47 47" fill="none" xmlns="http://www.w3.org/2000/svg">
<path fill-rule="evenodd" clip-rule="evenodd" d="M0.213867 23.7866C0.213867 11.0779 10.5163 0.775391 23.2251 0.775391C35.9339 0.775391 46.2363 11.0779 46.2363 23.7866C46.2363 36.4954 35.9339 46.7979 23.2251 46.7979C10.5163 46.7979 0.213867 36.4954 0.213867 23.7866ZM31.9981 17.3147C33.0049 17.1709 33.8678 17.0271 34.7307 16.5956C34.1554 17.6024 33.2925 18.4653 32.2858 19.0406C32.5734 25.8001 27.6835 33.1349 18.9105 33.1349C16.3217 33.1349 13.8768 32.272 11.7195 30.9776C14.1644 31.2653 16.7532 30.5462 18.479 29.2518C16.3217 29.2518 14.5959 27.8136 14.0206 25.9439C14.7397 26.0878 15.4588 25.9439 16.1779 25.8001C14.0206 25.2248 12.4386 23.2113 12.4386 21.054C13.1577 21.3417 13.8768 21.6293 14.5959 21.6293C12.5824 20.1911 11.8633 17.4585 13.1577 15.3012C15.6026 18.1776 19.0543 20.0473 22.9375 20.1911C22.2184 17.3147 24.5195 14.4383 27.5397 14.4383C28.8341 14.4383 30.1285 15.0136 30.9914 15.8765C32.142 15.5889 33.1487 15.3012 34.0116 14.726C33.724 15.8765 33.0049 16.7394 31.9981 17.3147Z" fill="#37BEB6"/>
</svg>
