<svg width="47" height="47" viewBox="0 0 47 47" fill="none" xmlns="http://www.w3.org/2000/svg">
<path d="M27.1554 23.7866L21.1149 20.3349V27.2383L27.1554 23.7866Z" fill="#37BEB6"/>
<path fill-rule="evenodd" clip-rule="evenodd" d="M0.404785 23.7866C0.404785 11.0779 10.7073 0.775391 23.416 0.775391C36.1248 0.775391 46.4273 11.0779 46.4273 23.7866C46.4273 36.4954 36.1248 46.7979 23.416 46.7979C10.7073 46.7979 0.404785 36.4954 0.404785 23.7866ZM32.3329 16.1642C33.3396 16.4518 34.0587 17.1709 34.3464 18.1776C34.9216 20.0473 34.9216 23.7866 34.9216 23.7866C34.9216 23.7866 34.9217 27.526 34.4902 29.3956C34.2026 30.4024 33.4834 31.1215 32.4767 31.4091C30.607 31.8406 23.416 31.8406 23.416 31.8406C23.416 31.8406 16.0812 31.8406 14.3553 31.4091C13.3486 31.1215 12.6295 30.4024 12.3419 29.3956C11.9104 27.526 11.9104 23.7866 11.9104 23.7866C11.9104 23.7866 11.9104 20.0473 12.198 18.1776C12.4857 17.1709 13.2048 16.4518 14.2115 16.1642C16.0812 15.7327 23.2722 15.7327 23.2722 15.7327C23.2722 15.7327 30.607 15.7327 32.3329 16.1642Z" fill="#37BEB6"/>
</svg>
