<svg width="48" height="48" viewBox="0 0 48 48" fill="none" xmlns="http://www.w3.org/2000/svg">
<rect x="1" y="1" width="46" height="46" rx="23" stroke="#31B3EB" stroke-width="2"/>
<path fill-rule="evenodd" clip-rule="evenodd" d="M16.5 14C16.5 15.3807 15.3807 16.5 14 16.5C12.6193 16.5 11.5 15.3807 11.5 14C11.5 12.6193 12.6193 11.5 14 11.5C15.3807 11.5 16.5 12.6193 16.5 14ZM16.5 19.625V36.5H11.5V19.625H16.5ZM20.25 19.625H25.25V20.6768C26.0319 20.4004 26.8734 20.25 27.75 20.25C31.8921 20.25 35.25 23.6079 35.25 27.75V36.5H30.25V27.75C30.25 26.3693 29.1307 25.25 27.75 25.25C26.3693 25.25 25.25 26.3693 25.25 27.75V36.5H20.25V27.75V19.625Z" fill="#31B3EB"/>
</svg>
